<svg width="1018" height="658" viewBox="0 0 1018 658" fill="none" xmlns="http://www.w3.org/2000/svg">
<path d="M69.0773 9.91775L88.7949 1.19651C90.5786 0.407544 92.5075 0 94.458 0H1003.5C1011.23 0 1017.5 6.26802 1017.5 14V641.664C1017.5 656.468 994.991 662.39 985.16 651.323C980.526 646.107 975.875 641.896 971.5 639.5C950.5 628 898 603.5 879 595.5C860 587.5 801 585.5 792 585.5C783 585.5 554 560.5 503 560.5C452.987 560.5 391.916 549.922 365.051 545.269L363.5 545C337.5 540.5 319.5 512 320.5 503C321.174 496.93 326.872 464.134 330.94 441.107C332.126 434.398 328.336 427.815 321.944 425.458C289.226 413.394 238.922 393.992 235 389C229.5 382 184 351 182 343C180.4 336.6 152 314.667 138 304.5L81.9373 273.787C80.9824 273.264 79.9696 272.854 78.9197 272.566L38.4216 261.44C36.176 260.823 34.1198 259.656 32.4392 258.044L13.6844 240.054C11.6117 238.066 10.2006 235.489 9.64249 232.672L0.593709 186.997C0.202506 185.022 0.24174 182.986 0.708735 181.028L27.8832 67.0861C28.2908 65.3773 29.0163 63.7605 30.0219 62.32L63.2609 14.7073C64.7256 12.6093 66.7372 10.9528 69.0773 9.91775Z" fill="#591D1D"/>
</svg>
